<?xml version="1.0" encoding="utf-8"?>
<!-- Generator: Adobe Illustrator 25.2.3, SVG Export Plug-In . SVG Version: 6.00 Build 0)  -->
<svg version="1.1" id="Capa_1" xmlns="http://www.w3.org/2000/svg" xmlns:xlink="http://www.w3.org/1999/xlink" x="0px" y="0px"
	 viewBox="0 0 841.89 595.28" style="enable-background:new 0 0 841.89 595.28;" xml:space="preserve">
<g>
	<g>
		<path d="M226.71,290.75c-6.95,0-13.59-1.02-19.95-3.05c-6.36-2.03-11.5-5.4-15.43-10.12c-3.93-4.72-5.9-11.07-5.9-19.06
			c0-8.51,1.64-16.83,4.91-24.96c3.27-8.12,7.66-15.69,13.17-22.7c5.5-7.01,11.66-13.07,18.47-18.18c6.02-4.58,13-8.32,20.93-11.2
			c7.92-2.88,15.82-4.32,23.68-4.32c3.27,0,6.35,0.23,9.24,0.69c2.88,0.46,5.83,1.41,8.84,2.85c2.62,1.18,4.72,2.65,6.29,4.42
			c1.57,1.77,2.36,3.77,2.36,5.99c0,0.26,0,0.59,0,0.98s-0.07,0.72-0.2,0.98c-0.52,2.1-1.74,4.49-3.64,7.17
			c-1.9,2.69-3.37,5.47-4.42,8.35c-0.13,0.52-0.85,0.95-2.16,1.28c-1.31,0.33-1.84,0.23-1.57-0.29c1.05-1.7,1.87-3.8,2.46-6.29
			c0.59-2.49,0.88-4.98,0.88-7.47c0-1.83-0.17-3.57-0.49-5.21c-0.33-1.64-0.88-3.05-1.67-4.23c-1.31-2.36-3.34-3.99-6.09-4.91
			c-2.75-0.91-5.7-1.38-8.84-1.38c-3.02,0-6.03,0.33-9.04,0.98c-3.02,0.66-5.63,1.38-7.86,2.16c-7.6,2.75-14.87,7.07-21.81,12.97
			c-6.16,5.37-11.63,11.59-16.41,18.67c-4.78,7.07-8.55,14.35-11.3,21.81c-2.75,7.47-4.13,14.61-4.13,21.42
			c0,6.95,1.5,12.45,4.52,16.51c3.01,4.06,6.94,6.95,11.79,8.65c4.85,1.7,10.09,2.55,15.72,2.55c4.98,0,9.92-0.52,14.84-1.57
			c4.91-1.05,9.4-2.36,13.46-3.93c6.94-2.62,13.2-5.83,18.77-9.63c5.57-3.8,10.77-8.71,15.62-14.74c0.65-0.65,1.11-0.98,1.38-0.98
			c0.39,0,0.59,0.26,0.59,0.79c0,1.05-0.52,2.29-1.57,3.73c-4.46,6.03-9.5,11.07-15.13,15.13c-5.63,4.06-11.66,7.4-18.08,10.02
			c-4.32,1.7-9.33,3.14-15.03,4.32C238.2,290.16,232.47,290.75,226.71,290.75z"/>
		<path d="M314.93,285.64c-1.31,0-2.43-0.26-3.34-0.79c-0.92-0.52-1.38-1.5-1.38-2.95c0-1.83,0.46-3.93,1.38-6.29
			c0.91-2.36,1.97-4.68,3.14-6.98c1.18-2.29,2.23-4.16,3.14-5.6c-4.59,4.85-9.37,9.43-14.34,13.76c-2.49,2.1-5.24,4.06-8.25,5.89
			c-3.02,1.84-6.22,2.75-9.63,2.75c-1.31,0-2.23-0.42-2.75-1.28c-0.52-0.85-0.79-1.87-0.79-3.05c0-0.65,0.06-1.11,0.2-1.38
			c0.65-5.11,2.29-10.41,4.91-15.92c2.62-5.5,5.83-10.68,9.63-15.52c3.8-4.85,7.66-8.78,11.59-11.79c4.45-3.4,9.36-5.11,14.74-5.11
			h22.6c0.65,0,0.98,0.26,0.98,0.79c0,1.05-0.59,1.57-1.77,1.57c-1.31,0-2.62,0.82-3.93,2.46c-1.31,1.64-2.29,2.98-2.95,4.03
			c-0.92,1.44-2.36,3.87-4.32,7.27c-1.96,3.41-3.96,7.11-5.99,11.1c-2.03,4-3.77,7.7-5.21,11.1c-1.44,3.41-2.16,5.89-2.16,7.47
			c0,1.84,0.91,2.75,2.75,2.75c1.96,0,4.19-0.92,6.68-2.75c2.49-1.83,5.01-4.09,7.57-6.78c2.55-2.68,4.91-5.37,7.07-8.06
			c2.16-2.68,3.9-4.81,5.21-6.39c0.79,0.79,0.75,1.87-0.1,3.24c-0.85,1.38-1.61,2.46-2.26,3.24c-2.62,3.41-5.63,6.91-9.04,10.51
			c-3.41,3.61-7.11,6.62-11.1,9.04C323.22,284.43,319.13,285.64,314.93,285.64z M293.71,278.77c1.57,0,3.76-1.15,6.58-3.44
			c2.82-2.29,5.86-5.17,9.14-8.65c3.27-3.47,6.35-7.14,9.24-11c2.88-3.86,5.27-7.4,7.17-10.61c1.9-3.21,2.85-5.66,2.85-7.37
			c0-1.44-0.43-2.42-1.28-2.95c-0.85-0.52-1.93-0.79-3.24-0.79c-2.1,0-4.36,0.76-6.78,2.26c-2.43,1.51-4.36,2.98-5.8,4.42
			c-1.57,1.44-3.44,3.7-5.6,6.78c-2.16,3.08-4.29,6.45-6.39,10.12c-2.1,3.67-3.87,7.21-5.31,10.61c-1.44,3.41-2.16,6.16-2.16,8.25
			C292.14,277.98,292.66,278.77,293.71,278.77z"/>
		<path d="M300.39,329.46c-5.11,0-9.4-0.82-12.87-2.46c-3.47-1.64-5.8-4.1-6.98-7.37c-0.13-0.39-0.23-0.79-0.29-1.18
			c-0.06-0.39-0.1-0.85-0.1-1.38c0-1.97,0.46-4.16,1.38-6.58c0.92-2.43,1.9-5.01,2.95-7.76c0.39-0.79,0.85-1.18,1.38-1.18
			c0.92,0,1.18,0.65,0.79,1.97c-0.92,1.97-1.38,4.06-1.38,6.29c0,4.58,2,8.28,5.99,11.1c4,2.82,8.55,4.23,13.66,4.23
			c3.93,0,7.73-0.92,11.4-2.75c6.16-3.14,11.2-7.47,15.13-12.97c3.93-5.5,7.4-11.07,10.41-16.7c4.58-8.77,8.55-17.98,11.89-27.61
			c3.34-9.63,6.91-19.16,10.71-28.59h-4.52c-0.66,0-1.38,0.07-2.16,0.2c-0.79,0.13-1.51,0.26-2.16,0.39l-0.39-0.2
			c0.26-1.44,1.54-2.72,3.83-3.83c2.29-1.11,4.09-1.67,5.4-1.67h2.36c1.97-4.72,4.29-9.89,6.98-15.52c2.68-5.63,5.6-11.3,8.74-17
			c3.14-5.7,6.58-10.91,10.32-15.62c3.73-4.72,7.63-8.45,11.69-11.2c6.68-4.72,14.08-7.07,22.21-7.07c1.57,0,3.11,0.49,4.62,1.47
			c1.5,0.98,2.19,2.46,2.06,4.42l-0.59,7.07c0,0.26-0.2,0.46-0.59,0.59c-0.39,0.13-0.66,0.07-0.79-0.2
			c-0.52-2.62-1.94-4.55-4.23-5.8c-2.29-1.24-4.95-1.87-7.96-1.87c-4.85,0-9.27,1.57-13.26,4.72c-4,3.14-8.29,8.97-12.87,17.49
			c-1.7,3.28-3.57,7.14-5.6,11.59c-2.03,4.46-4.03,9.04-5.99,13.76c-1.97,4.72-3.87,9.11-5.7,13.17H390c0.91,0,1.87-0.03,2.85-0.1
			c0.98-0.06,1.93-0.16,2.85-0.29c0,0.52-0.36,1.02-1.08,1.47c-0.72,0.46-1.35,0.82-1.87,1.08c-3.28,1.7-6.36,2.65-9.24,2.85
			c-2.88,0.2-6.16,0.23-9.83,0.1c-2.88,7.21-5.6,14.05-8.15,20.53c-2.55,6.48-5.34,12.81-8.35,18.96
			c-2.49,5.5-5.57,11.33-9.24,17.49c-3.67,6.16-7.86,11.99-12.58,17.49c-4.72,5.5-9.99,9.95-15.82,13.36
			C313.72,327.76,307.34,329.46,300.39,329.46z"/>
		<path d="M408.47,285.64c-1.31,0-2.43-0.26-3.34-0.79c-0.92-0.52-1.38-1.5-1.38-2.95c0-1.83,0.46-3.93,1.38-6.29
			c0.92-2.36,1.97-4.68,3.14-6.98c1.18-2.29,2.23-4.16,3.14-5.6c-4.59,4.85-9.37,9.43-14.34,13.76c-2.49,2.1-5.24,4.06-8.25,5.89
			c-3.02,1.84-6.22,2.75-9.63,2.75c-1.31,0-2.23-0.42-2.75-1.28c-0.52-0.85-0.79-1.87-0.79-3.05c0-0.65,0.06-1.11,0.2-1.38
			c0.65-5.11,2.29-10.41,4.91-15.92c2.62-5.5,5.83-10.68,9.63-15.52c3.8-4.85,7.66-8.78,11.59-11.79c4.45-3.4,9.36-5.11,14.74-5.11
			h22.6c0.65,0,0.98,0.26,0.98,0.79c0,1.05-0.59,1.57-1.77,1.57c-1.31,0-2.62,0.82-3.93,2.46c-1.31,1.64-2.29,2.98-2.95,4.03
			c-0.92,1.44-2.36,3.87-4.32,7.27c-1.97,3.41-3.96,7.11-5.99,11.1c-2.03,4-3.77,7.7-5.21,11.1c-1.44,3.41-2.16,5.89-2.16,7.47
			c0,1.84,0.92,2.75,2.75,2.75c1.97,0,4.19-0.92,6.68-2.75c2.49-1.83,5.01-4.09,7.57-6.78c2.55-2.68,4.91-5.37,7.07-8.06
			c2.16-2.68,3.9-4.81,5.21-6.39c0.79,0.79,0.75,1.87-0.1,3.24c-0.85,1.38-1.61,2.46-2.26,3.24c-2.62,3.41-5.63,6.91-9.04,10.51
			c-3.41,3.61-7.11,6.62-11.1,9.04C416.75,284.43,412.66,285.64,408.47,285.64z M387.24,278.77c1.57,0,3.76-1.15,6.58-3.44
			c2.81-2.29,5.86-5.17,9.14-8.65c3.27-3.47,6.35-7.14,9.24-11c2.88-3.86,5.27-7.4,7.17-10.61c1.9-3.21,2.85-5.66,2.85-7.37
			c0-1.44-0.43-2.42-1.28-2.95c-0.85-0.52-1.93-0.79-3.24-0.79c-2.1,0-4.36,0.76-6.78,2.26c-2.43,1.51-4.36,2.98-5.8,4.42
			c-1.57,1.44-3.44,3.7-5.6,6.78c-2.16,3.08-4.29,6.45-6.39,10.12c-2.1,3.67-3.87,7.21-5.31,10.61c-1.44,3.41-2.16,6.16-2.16,8.25
			C385.67,277.98,386.19,278.77,387.24,278.77z"/>
		<path d="M419.27,353.83c-4.98,0-9.79-1.15-14.44-3.44c-4.65-2.29-8.09-5.8-10.32-10.51c-0.79-1.7-1.31-3.51-1.57-5.4
			c-0.26-1.9-0.39-3.77-0.39-5.6v-2.16c0-1.05,0.13-2,0.39-2.85c0.26-0.85,0.92-1.28,1.97-1.28c0.26,0,0.39,0.13,0.39,0.39
			c0,0.79-0.06,1.57-0.2,2.36c-0.13,0.79-0.2,1.64-0.2,2.55c0,6.02,1.93,10.61,5.8,13.76c3.87,3.14,8.68,4.72,14.44,4.72
			c2.36,0,4.78-0.26,7.27-0.79c2.49-0.53,4.85-1.25,7.07-2.16c8.25-3.54,15.43-8.55,21.52-15.03c6.09-6.48,11.43-13.79,16.01-21.91
			c4.58-8.12,8.71-16.38,12.38-24.76c2.09-4.98,3.96-9.83,5.6-14.54c1.64-4.72,3.11-8.97,4.42-12.77c-1.31,1.84-3.01,4.06-5.11,6.68
			c-2.1,2.62-4.19,5.14-6.29,7.57c-2.1,2.43-3.93,4.36-5.5,5.8c-3.28,3.14-6.78,5.8-10.51,7.96c-3.73,2.16-7.57,3.24-11.5,3.24
			c-1.31,0-2.43-0.26-3.34-0.79c-0.92-0.52-1.38-1.5-1.38-2.95c0-1.83,0.49-3.99,1.47-6.48c0.98-2.49,2.06-4.98,3.24-7.47
			c1.18-2.49,2.16-4.52,2.95-6.09c1.57-3.01,3.08-6.02,4.52-9.04c1.44-3.01,2.68-5.57,3.73-7.66c1.05-1.97,1.57-3.27,1.57-3.93
			c0-1.05-0.75-1.05-2.26,0c-1.51,1.05-2.92,2.1-4.22,3.14c-2.88,2.75-5.9,5.99-9.04,9.73c-3.14,3.73-5.57,6.72-7.27,8.94
			c-0.39,0.53-0.72,0.79-0.98,0.79c-0.26,0-0.39-0.33-0.39-0.98c0-1.05,0.32-2.03,0.98-2.95c1.83-2.62,3.99-5.5,6.48-8.65
			c2.49-3.14,5.04-6.16,7.66-9.04c2.49-2.62,5.04-5.17,7.66-7.66c2.62-2.49,5.96-3.73,10.02-3.73c2.75,0,4.13,1.05,4.13,3.14
			c0,1.84-0.79,3.93-2.36,6.29c-0.92,1.44-2.36,3.87-4.32,7.27c-1.97,3.41-3.96,7.11-5.99,11.1c-2.03,4-3.77,7.7-5.21,11.1
			c-1.44,3.41-2.16,5.89-2.16,7.47c0,1.84,0.91,2.75,2.75,2.75c1.44,0,3.21-0.75,5.3-2.26c2.09-1.5,4.26-3.31,6.49-5.4
			c3.8-3.67,7.3-7.73,10.51-12.18c3.21-4.45,5.99-8.71,8.35-12.77c0.39-0.65,1.08-1.83,2.06-3.54c0.98-1.7,2.03-3.34,3.14-4.91
			c1.11-1.57,2-2.49,2.65-2.75c0.65-0.26,1.96-0.98,3.93-2.16c1.97-1.18,3.93-1.96,5.9-2.36c1.83-0.39,3.21-0.59,4.13-0.59
			c1.44,0,2.16,0.39,2.16,1.18c0,1.05-0.59,1.57-1.77,1.57c-1.44,0-2.75,0.36-3.93,1.08c-1.18,0.72-2.1,1.61-2.75,2.65
			c-1.18,1.7-2.85,4.78-5.01,9.24c-2.16,4.46-4.52,9.6-7.07,15.43c-2.55,5.83-5.08,11.73-7.57,17.69
			c-2.49,5.96-4.78,11.43-6.88,16.41c-3.14,7.47-6.75,14.77-10.81,21.91c-4.06,7.14-8.81,13.56-14.25,19.26
			c-5.44,5.7-11.89,10.18-19.36,13.46C429.56,352.85,424.65,353.83,419.27,353.83z"/>
		<path d="M533.83,285.64c-1.31,0-2.43-0.26-3.34-0.79c-0.92-0.52-1.38-1.5-1.38-2.95c0-1.83,0.46-3.93,1.38-6.29
			c0.92-2.36,1.97-4.68,3.14-6.98c1.18-2.29,2.23-4.16,3.14-5.6c-4.59,4.85-9.37,9.43-14.34,13.76c-2.49,2.1-5.24,4.06-8.25,5.89
			c-3.01,1.84-6.22,2.75-9.63,2.75c-1.31,0-2.23-0.42-2.75-1.28c-0.52-0.85-0.79-1.87-0.79-3.05c0-0.65,0.06-1.11,0.2-1.38
			c0.65-5.11,2.29-10.41,4.91-15.92c2.62-5.5,5.83-10.68,9.63-15.52c3.8-4.85,7.66-8.78,11.59-11.79c4.45-3.4,9.36-5.11,14.74-5.11
			h22.6c0.65,0,0.98,0.26,0.98,0.79c0,1.05-0.59,1.57-1.77,1.57c-1.31,0-2.62,0.82-3.93,2.46c-1.31,1.64-2.29,2.98-2.95,4.03
			c-0.92,1.44-2.36,3.87-4.32,7.27c-1.97,3.41-3.96,7.11-5.99,11.1c-2.03,4-3.77,7.7-5.21,11.1c-1.44,3.41-2.16,5.89-2.16,7.47
			c0,1.84,0.92,2.75,2.75,2.75c1.97,0,4.19-0.92,6.68-2.75c2.49-1.83,5.01-4.09,7.57-6.78c2.55-2.68,4.91-5.37,7.07-8.06
			c2.16-2.68,3.9-4.81,5.21-6.39c0.79,0.79,0.75,1.87-0.1,3.24c-0.85,1.38-1.61,2.46-2.26,3.24c-2.62,3.41-5.63,6.91-9.04,10.51
			c-3.41,3.61-7.11,6.62-11.1,9.04C542.12,284.43,538.02,285.64,533.83,285.64z M512.61,278.77c1.57,0,3.76-1.15,6.58-3.44
			c2.81-2.29,5.86-5.17,9.14-8.65c3.27-3.47,6.35-7.14,9.24-11c2.88-3.86,5.27-7.4,7.17-10.61c1.9-3.21,2.85-5.66,2.85-7.37
			c0-1.44-0.43-2.42-1.28-2.95c-0.85-0.52-1.93-0.79-3.24-0.79c-2.1,0-4.36,0.76-6.78,2.26c-2.43,1.51-4.36,2.98-5.8,4.42
			c-1.57,1.44-3.44,3.7-5.6,6.78c-2.16,3.08-4.29,6.45-6.39,10.12c-2.1,3.67-3.87,7.21-5.31,10.61c-1.44,3.41-2.16,6.16-2.16,8.25
			C511.04,277.98,511.56,278.77,512.61,278.77z"/>
		<path d="M572.74,285.64c-1.31,0-2.43-0.26-3.34-0.79c-0.92-0.52-1.38-1.5-1.38-2.95c0-1.83,0.49-3.99,1.47-6.48
			c0.98-2.49,2.06-4.98,3.24-7.47c1.18-2.49,2.16-4.52,2.95-6.09c0.65-1.18,1.54-3.05,2.65-5.6c1.11-2.55,2.29-5.24,3.54-8.06
			c1.24-2.82,2.72-6.19,4.42-10.12c-1.18,1.31-2.72,3.14-4.62,5.5c-1.9,2.36-3.93,4.81-6.09,7.37c-2.16,2.55-4.13,4.95-5.9,7.17
			c-1.77,2.23-3.05,3.87-3.83,4.91c-0.39,0.53-0.72,0.79-0.98,0.79c-0.26,0-0.39-0.33-0.39-0.98c0-1.05,0.32-2.03,0.98-2.95
			c1.57-1.97,3.47-4.35,5.7-7.17c2.23-2.82,4.49-5.66,6.78-8.55c2.29-2.88,4.29-5.43,5.99-7.66c-1.05,0-2.39,0.07-4.03,0.2
			c-1.64,0.13-3.11,0.29-4.42,0.49c-1.31,0.2-2.03,0.29-2.16,0.29c-0.66,0-0.59-0.52,0.2-1.57c0.79-1.05,1.83-2.09,3.14-3.14
			c1.31-1.05,2.29-1.57,2.95-1.57c0.13,0,1.18,0.03,3.14,0.1c1.97,0.07,3.4,0.1,4.32,0.1c2.62-3.54,5.21-7.6,7.76-12.18
			c2.55-4.58,5.08-9.63,7.57-15.13c1.05-0.13,2.85-0.88,5.4-2.26c2.55-1.38,4.55-2.78,5.99-4.23c0.65-0.65,1.18-0.98,1.57-0.98
			c0.79,0,0.79,0.53,0,1.57c-0.92,1.05-2.49,3.24-4.72,6.58c-2.23,3.34-4.72,7.34-7.47,11.99c-2.75,4.65-5.37,9.53-7.86,14.64h15.92
			c1.44,0,2.16,0.2,2.16,0.59c0,0.52-0.98,1.05-2.95,1.57c-2.23,0.66-4.55,1.05-6.98,1.18c-2.43,0.13-4.65,0.39-6.68,0.79
			c-2.03,0.39-3.51,1.25-4.42,2.55c-0.79,0.92-1.9,2.88-3.34,5.89c-1.44,3.02-2.98,6.45-4.62,10.32c-1.64,3.87-3.05,7.73-4.22,11.59
			c-1.18,3.87-1.9,7.11-2.16,9.73v0.79c0,1.05,0.33,1.9,0.98,2.55c0.65,0.66,1.31,0.98,1.97,0.98c1.7,0,3.9-1.05,6.58-3.14
			c2.68-2.09,5.47-4.62,8.35-7.57c2.88-2.95,5.37-5.66,7.47-8.15c0.91-1.05,1.73-2.03,2.46-2.95c0.72-0.91,1.14-1.5,1.28-1.77
			c0.26,0.52,0.39,0.92,0.39,1.18c0,0.79-0.23,1.64-0.69,2.55c-0.46,0.92-0.95,1.7-1.47,2.36c-2.49,3.28-5.5,6.72-9.04,10.32
			c-3.54,3.61-7.3,6.65-11.3,9.14C581.02,284.4,576.93,285.64,572.74,285.64z"/>
		<path d="M614.99,286.63c-5.37,0-9.11-1.05-11.2-3.14c-2.1-2.09-3.14-4.65-3.14-7.66c0-3.8,1.01-7.86,3.05-12.18
			c2.03-4.32,3.96-7.99,5.8-11c2.09-3.14,4.91-6.42,8.45-9.83c3.54-3.4,7.4-6.29,11.59-8.65c4.19-2.36,8.25-3.54,12.18-3.54
			c3.4,0,5.76,0.82,7.07,2.46c1.31,1.64,1.97,3.57,1.97,5.8c0,4.06-1.21,7.4-3.63,10.02c-2.43,2.62-5.4,4.75-8.94,6.39
			c-3.54,1.64-6.95,2.98-10.22,4.03c-1.97,0.52-4.26,1.05-6.88,1.57c-2.62,0.52-5.11,0.79-7.47,0.79c-0.92,2.36-1.64,4.65-2.16,6.88
			c-0.52,2.23-0.79,4.26-0.79,6.09c0,2.23,0.56,4.06,1.67,5.5c1.11,1.44,2.98,2.16,5.6,2.16c1.05,0,2.29-0.13,3.73-0.39
			c1.44-0.26,3.01-0.65,4.72-1.18c3.93-1.31,7.79-3.4,11.59-6.29c3.8-2.88,7.3-5.99,10.51-9.33c3.21-3.34,5.66-6.12,7.37-8.35
			c0.39,0.39,0.59,0.85,0.59,1.38c0,0.66-0.46,1.7-1.38,3.14c-2.62,3.67-6.03,7.47-10.22,11.4c-4.19,3.93-8.84,7.24-13.95,9.92
			C625.79,285.28,620.49,286.63,614.99,286.63z M615.18,257.74c1.7,0.13,3.63,0.1,5.8-0.1c2.16-0.2,4.29-0.62,6.39-1.28
			c5.37-1.57,9.27-4.09,11.69-7.57c2.42-3.47,3.64-6.58,3.64-9.33c0-1.57-0.33-2.88-0.98-3.93c-0.66-1.05-1.7-1.57-3.14-1.57
			c-3.8,0-7.21,1.41-10.22,4.23c-3.01,2.82-5.63,6.06-7.86,9.73C618.26,251.58,616.49,254.86,615.18,257.74z"/>
	</g>
	<g>
		<path d="M501,430.29c0,0-1.4-0.18-4.13-0.52c-1.36-0.18-3.06-0.36-5.08-0.66c-2.01-0.3-4.35-0.62-6.99-1.04
			c-1.32-0.23-2.71-0.46-4.19-0.72c-1.48-0.24-3.02-0.55-4.63-0.87c-1.61-0.33-3.31-0.64-5.05-1.06c-0.87-0.2-1.77-0.41-2.68-0.62
			c-0.45-0.11-0.91-0.21-1.38-0.32c-0.46-0.12-0.92-0.25-1.39-0.37c-7.51-1.94-15.98-4.75-25.04-8.75
			c-9.1-3.94-18.94-8.79-29.9-13.82c-1.35-0.65-2.79-1.23-4.21-1.85c-0.71-0.31-1.43-0.62-2.15-0.93c-0.72-0.32-1.47-0.57-2.21-0.86
			c-1.49-0.56-2.99-1.14-4.52-1.7c-1.55-0.51-3.11-1.03-4.69-1.56c-1.57-0.55-3.21-0.97-4.83-1.46c-1.64-0.47-3.28-0.97-4.97-1.37
			c-1.69-0.42-3.39-0.85-5.11-1.28c-1.74-0.37-3.49-0.75-5.26-1.13c-1.76-0.41-3.57-0.68-5.38-1.02c-0.91-0.16-1.82-0.33-2.73-0.49
			c-0.91-0.17-1.85-0.28-2.77-0.42c-1.86-0.26-3.73-0.56-5.63-0.79c-1.9-0.21-3.82-0.42-5.75-0.64c-7.75-0.73-15.8-1.1-24.09-0.94
			c-8.29,0.16-16.84,0.92-25.45,2.55c-2.16,0.36-4.34,0.87-6.48,1.5c-2.15,0.63-4.28,1.38-6.33,2.37c-2.04,0.99-4.01,2.22-5.65,3.85
			c-0.78,0.84-1.53,1.74-2.02,2.79c-0.49,1.04-0.81,2.16-0.84,3.3c-0.01,1.14,0.22,2.26,0.61,3.32c0.44,1.04,1,2.03,1.69,2.93
			c1.36,1.81,3.13,3.31,4.99,4.65c1.88,1.33,3.9,2.49,6,3.54l1.59,0.76c0.53,0.25,1.08,0.47,1.62,0.7c1.08,0.46,2.17,0.92,3.25,1.38
			c4.43,1.71,9.05,3.18,13.85,4.3c4.8,1.11,9.77,1.84,14.82,2.25c5.05,0.41,10.18,0.48,15.33,0.29c5.15-0.2,10.32-0.66,15.5-1.24
			c1.3-0.14,2.59-0.3,3.89-0.46c1.3-0.15,2.6-0.34,3.9-0.53c1.3-0.19,2.61-0.38,3.92-0.56l1.97-0.28l1.96-0.35
			c1.31-0.23,2.62-0.46,3.93-0.7l1.97-0.35c0.66-0.11,1.31-0.27,1.96-0.4c1.31-0.28,2.62-0.55,3.93-0.83
			c1.31-0.28,2.63-0.54,3.93-0.88c20.98-4.88,41.81-12.52,62.04-22.16c10.12-4.82,20.11-10.13,29.99-15.82
			c1.23-0.71,2.47-1.41,3.71-2.15c1.24-0.74,2.47-1.48,3.69-2.24c2.44-1.51,4.85-3.06,7.25-4.61c4.8-3.11,9.58-6.27,14.45-9.33
			c4.87-3.07,9.83-6.06,14.97-8.83c5.14-2.77,10.43-5.35,15.97-7.46l2.08-0.78l2.11-0.71l1.06-0.36l1.07-0.32l2.14-0.63l2.17-0.54
			c0.36-0.09,0.72-0.19,1.09-0.27l1.1-0.22c0.73-0.14,1.46-0.3,2.19-0.43l2.21-0.33c2.95-0.38,5.94-0.61,8.91-0.47l1.11,0.03
			c0.37,0.01,0.74,0.06,1.11,0.09l2.21,0.21l2.18,0.36c0.36,0.07,0.73,0.11,1.09,0.19l1.07,0.26c0.71,0.18,1.44,0.32,2.14,0.54
			l2.09,0.67c1.4,0.45,2.74,1.02,4.07,1.61c2.63,1.21,5.09,2.68,7.28,4.39c1.08,0.87,2.12,1.77,3.04,2.76
			c0.95,0.97,1.77,2.03,2.52,3.11c0.75,1.09,1.37,2.24,1.91,3.41c0.5,1.19,0.95,2.39,1.22,3.64c1.16,4.97,0.33,10.29-2.16,15.07
			c-0.59,1.21-1.33,2.37-2.09,3.52c-0.41,0.56-0.8,1.13-1.24,1.69l-1.35,1.68c-1.85,2.21-3.9,4.29-6.12,6.23
			c-4.45,3.89-9.61,7.19-15.25,9.81c-5.64,2.63-11.73,4.61-18.03,5.98c-6.31,1.38-12.82,2.17-19.4,2.46l-2.47,0.09l-2.47,0.04
			l-2.48-0.01l-2.48-0.08l-2.49-0.08c-0.83-0.04-1.66-0.03-2.49-0.11c-1.65-0.13-3.31-0.26-4.97-0.38
			c-6.61-0.65-13.19-1.67-19.7-3.08c-6.49-1.46-12.91-3.26-19.24-5.35c-1.57-0.54-3.15-1.08-4.73-1.63
			c-1.57-0.57-3.12-1.16-4.69-1.74c-1.57-0.57-3.1-1.21-4.66-1.83l-2.32-0.93c-0.77-0.32-1.54-0.65-2.3-0.98
			c-6.16-2.58-12.22-5.4-18.26-8.31c-12.08-5.82-23.87-12.03-35.81-17.97c-5.97-2.96-11.97-5.87-18.04-8.64
			c-6.09-2.75-12.25-5.36-18.5-7.76c-6.27-2.38-12.65-4.52-19.12-6.39c-1.63-0.44-3.25-0.89-4.88-1.33
			c-1.63-0.43-3.28-0.79-4.92-1.19c-0.82-0.19-1.64-0.39-2.47-0.58l-2.54-0.5c-0.85-0.17-1.7-0.28-2.55-0.42
			c-0.85-0.15-1.7-0.25-2.56-0.36c-1.7-0.24-3.42-0.37-5.13-0.53c-1.71-0.1-3.42-0.23-5.13-0.26c-1.71-0.07-3.42-0.05-5.12-0.06
			c-1.7,0.04-3.41,0.06-5.1,0.17c-1.7,0.07-3.39,0.22-5.07,0.34c-1.68,0.17-3.37,0.32-5.04,0.55c-1.68,0.19-3.34,0.46-5,0.71
			c-1.65,0.29-3.31,0.56-4.95,0.91c-3.28,0.65-6.53,1.44-9.72,2.35c-3.2,0.89-6.34,1.93-9.42,3.11c-3.08,1.17-6.09,2.48-8.98,3.98
			c-2.9,1.5-5.69,3.16-8.3,5.05c-2.61,1.89-5.04,4.01-7.09,6.44c-0.5,0.61-0.98,1.25-1.47,1.87c-0.44,0.67-0.89,1.35-1.29,2.05
			l-0.53,1.09l-0.26,0.55c-0.07,0.19-0.13,0.38-0.2,0.57l-0.39,1.15c-0.11,0.39-0.17,0.79-0.25,1.19c-0.2,0.79-0.18,1.6-0.23,2.41
			c0,0.4,0.05,0.8,0.08,1.21l0.06,0.6c0.02,0.2,0.08,0.39,0.12,0.59l0.26,1.17c0.12,0.38,0.26,0.76,0.39,1.13l0.2,0.56l0.26,0.54
			l0.53,1.07c1.57,2.77,3.75,5.11,6.13,7.14c2.4,2.02,5.02,3.76,7.73,5.31c2.72,1.55,5.53,2.92,8.42,4.15
			c2.88,1.23,5.84,2.3,8.85,3.23c1.51,0.47,3.04,0.89,4.59,1.27c1.55,0.39,3.17,0.69,4.71,0.94c1.56,0.29,3.13,0.46,4.7,0.68
			c0.79,0.09,1.57,0.16,2.36,0.24l1.18,0.12l1.18,0.08c3.14,0.25,6.28,0.3,9.41,0.31c6.25-0.06,12.43-0.49,18.5-1.25
			c6.07-0.74,12.05-1.74,17.92-2.92c5.88-1.17,11.66-2.5,17.36-3.91c11.4-2.81,22.48-5.96,33.43-8.84c2.73-0.71,5.5-1.49,8.23-2.23
			c1.37-0.38,2.71-0.8,4.07-1.2c1.35-0.41,2.71-0.8,4.04-1.23c1.33-0.44,2.66-0.87,3.99-1.31l1.99-0.65l1.97-0.7
			c1.31-0.46,2.62-0.93,3.92-1.39c1.3-0.47,2.58-0.98,3.86-1.47c10.28-3.92,20-8.49,29.35-13.19c9.35-4.71,18.35-9.55,27.25-14.19
			c2.22-1.17,4.44-2.31,6.65-3.45c1.1-0.56,2.21-1.15,3.3-1.69c0.54-0.27,1.08-0.53,1.63-0.78c0.55-0.26,1.1-0.5,1.66-0.74
			c4.46-1.93,9.12-3.51,13.8-4.83c4.69-1.29,9.43-2.35,14.17-3c2.37-0.33,4.74-0.57,7.09-0.69c2.35-0.11,4.69-0.1,6.98,0.09
			c2.29,0.19,4.53,0.54,6.63,1.16c2.1,0.61,4.05,1.49,5.67,2.67c0.4,0.3,0.81,0.58,1.18,0.94l0.57,0.51
			c0.19,0.17,0.38,0.34,0.55,0.53c0.34,0.37,0.7,0.72,1.02,1.09c0.3,0.39,0.62,0.76,0.9,1.15c1.12,1.57,1.87,3.3,2.14,5.08
			c0.28,1.78,0.1,3.6-0.46,5.35c-0.56,1.75-1.47,3.42-2.61,4.98c-2.29,3.12-5.38,5.76-8.73,8c-3.39,2.21-7.05,4.06-10.87,5.47
			c-1.91,0.71-3.83,1.33-5.82,1.82c-0.49,0.13-0.99,0.26-1.48,0.39c-0.49,0.13-0.99,0.23-1.49,0.34c-0.99,0.23-1.98,0.45-2.97,0.63
			c-7.94,1.54-15.91,1.96-23.57,1.59c-7.67-0.36-15.03-1.52-22.01-3.06c-6.99-1.53-21.49-6.58-27.75-8.66
			c-0.97-0.25-1.3,0.67-0.56,1.21c6.28,2.15,20.81,7.28,27.86,8.9c7.04,1.62,14.5,2.87,22.33,3.31c7.81,0.45,15.98,0.09,24.17-1.42
			c1.03-0.17,2.04-0.39,3.07-0.62c0.51-0.11,1.03-0.21,1.53-0.34c0.51-0.13,1.02-0.26,1.53-0.38c2.04-0.48,4.09-1.12,6.09-1.84
			c4.01-1.44,7.86-3.33,11.46-5.64c3.56-2.34,6.89-5.11,9.45-8.51c1.27-1.7,2.32-3.56,2.99-5.57c0.67-2.01,0.92-4.16,0.6-6.29
			c-0.31-2.13-1.18-4.19-2.46-6.02c-0.32-0.45-0.68-0.89-1.02-1.33c-0.36-0.43-0.76-0.83-1.14-1.25c-0.19-0.21-0.39-0.41-0.61-0.59
			l-0.63-0.58c-0.4-0.39-0.89-0.75-1.37-1.11c-1.93-1.43-4.21-2.46-6.57-3.17c-2.37-0.71-4.83-1.12-7.29-1.34
			c-2.47-0.22-4.95-0.25-7.43-0.15c-2.48,0.11-4.95,0.34-7.42,0.67c-4.94,0.64-9.83,1.69-14.67,2.99
			c-4.84,1.33-9.64,2.91-14.32,4.89c-0.59,0.25-1.17,0.5-1.75,0.77c-0.58,0.26-1.16,0.54-1.74,0.82c-1.14,0.56-2.23,1.12-3.35,1.69
			c-2.23,1.12-4.47,2.26-6.7,3.41c-8.96,4.58-18,9.37-27.33,13.98c-9.32,4.61-18.95,9.04-29.08,12.84
			c-1.27,0.47-2.53,0.96-3.81,1.42c-1.29,0.45-2.57,0.9-3.86,1.35l-1.94,0.67l-1.96,0.63c-1.31,0.42-2.62,0.84-3.94,1.26
			c-1.32,0.42-2.66,0.79-3.99,1.18c-1.34,0.38-2.66,0.8-4.01,1.16c-2.71,0.72-5.39,1.45-8.15,2.16
			c-11.03,2.84-22.11,5.92-33.42,8.65c-5.65,1.37-11.37,2.65-17.15,3.77c-5.78,1.13-11.63,2.08-17.55,2.78
			c-5.91,0.71-11.89,1.1-17.88,1.13c-2.99-0.02-5.99-0.08-8.98-0.33l-1.12-0.08l-1.12-0.12l-2.23-0.24
			c-1.48-0.21-2.97-0.38-4.43-0.66c-1.49-0.25-2.9-0.52-4.33-0.88c-1.42-0.36-2.85-0.75-4.26-1.2c-2.82-0.89-5.62-1.91-8.32-3.08
			c-2.71-1.17-5.34-2.46-7.85-3.91c-2.5-1.45-4.88-3.04-6.98-4.83c-2.08-1.79-3.88-3.79-5.1-5.94c-1.13-2.17-1.7-4.48-1.21-6.75
			c0.06-0.28,0.09-0.57,0.18-0.85l0.29-0.84c0.05-0.14,0.09-0.28,0.14-0.42l0.2-0.41l0.4-0.82c0.31-0.54,0.67-1.07,1.02-1.6
			c0.42-0.52,0.82-1.06,1.25-1.58c1.76-2.07,3.91-3.94,6.27-5.64c2.36-1.7,4.94-3.22,7.63-4.6c2.69-1.39,5.52-2.61,8.43-3.7
			c2.91-1.1,5.89-2.08,8.94-2.92c3.04-0.85,6.14-1.6,9.28-2.21c1.56-0.33,3.15-0.58,4.73-0.86c1.59-0.23,3.18-0.49,4.78-0.67
			c1.6-0.22,3.21-0.35,4.81-0.52c1.61-0.11,3.22-0.26,4.84-0.32c1.62-0.1,3.24-0.11,4.86-0.15c1.62,0.01,3.24-0.01,4.86,0.07
			c1.62,0.03,3.23,0.16,4.85,0.26c1.61,0.15,3.22,0.28,4.82,0.51c0.8,0.1,1.6,0.2,2.39,0.34c0.79,0.14,1.59,0.24,2.38,0.4l2.35,0.47
			c0.79,0.18,1.59,0.38,2.38,0.56c1.59,0.39,3.19,0.74,4.77,1.16c1.58,0.43,3.15,0.86,4.73,1.3c6.28,1.83,12.5,3.91,18.62,6.25
			c6.12,2.36,12.16,4.93,18.16,7.64c5.98,2.74,11.92,5.61,17.85,8.56c11.86,5.91,23.66,12.13,35.86,18.01
			c6.1,2.94,12.25,5.8,18.53,8.43c0.78,0.33,1.56,0.67,2.35,0.99l2.37,0.95c1.58,0.63,3.15,1.29,4.76,1.87
			c1.6,0.59,3.19,1.2,4.8,1.78c1.62,0.56,3.24,1.11,4.86,1.67c6.51,2.14,13.14,4,19.86,5.5c6.75,1.45,13.59,2.51,20.47,3.17
			c1.72,0.13,3.45,0.26,5.17,0.39c0.86,0.08,1.73,0.08,2.59,0.12l2.59,0.08l2.59,0.08l2.59,0l2.59-0.05l2.59-0.09
			c6.9-0.32,13.76-1.16,20.45-2.63c6.68-1.47,13.19-3.59,19.26-6.44c6.06-2.84,11.67-6.43,16.48-10.67
			c2.41-2.12,4.63-4.39,6.62-6.78l1.45-1.82c0.48-0.62,0.93-1.27,1.39-1.9c0.86-1.31,1.69-2.63,2.37-4.02
			c2.83-5.5,3.85-11.82,2.42-17.76c-0.34-1.49-0.87-2.93-1.48-4.35c-0.65-1.4-1.4-2.76-2.29-4.05c-0.9-1.28-1.87-2.52-2.99-3.65
			c-1.09-1.16-2.29-2.21-3.55-3.21c-2.54-1.97-5.35-3.64-8.33-4.98c-1.5-0.66-3-1.29-4.57-1.79l-2.36-0.75
			c-0.79-0.24-1.61-0.4-2.42-0.6l-1.21-0.29c-0.4-0.09-0.82-0.14-1.23-0.21l-2.47-0.4l-2.49-0.23c-0.41-0.03-0.83-0.09-1.24-0.1
			l-1.25-0.03c-3.32-0.14-6.63,0.13-9.86,0.56l-2.42,0.37c-0.8,0.14-1.59,0.32-2.38,0.48l-1.19,0.24c-0.39,0.09-0.78,0.19-1.17,0.29
			l-2.33,0.59l-2.28,0.68l-1.14,0.34l-1.12,0.38l-2.23,0.77l-2.19,0.83c-5.82,2.24-11.28,4.94-16.54,7.81
			c-5.26,2.87-10.29,5.94-15.2,9.06c-4.91,3.12-9.69,6.31-14.45,9.43c-2.38,1.56-4.75,3.1-7.14,4.6c-1.19,0.75-2.39,1.48-3.59,2.2
			c-1.21,0.72-2.44,1.43-3.65,2.14c-9.75,5.69-19.59,10.99-29.56,15.81c-19.91,9.64-40.37,17.29-60.97,22.22
			c-1.28,0.34-2.57,0.6-3.86,0.89c-1.29,0.28-2.58,0.56-3.86,0.84c-0.64,0.13-1.28,0.29-1.93,0.41l-1.93,0.36
			c-1.29,0.24-2.57,0.48-3.86,0.71l-1.92,0.35l-1.93,0.29c-1.29,0.19-2.57,0.39-3.85,0.58c-1.28,0.2-2.56,0.39-3.84,0.55
			c-1.28,0.16-2.56,0.34-3.84,0.48c-5.11,0.61-10.18,1.09-15.2,1.32c-5.02,0.22-9.99,0.19-14.88-0.17
			c-4.88-0.37-9.68-1.03-14.32-2.06c-4.63-1.05-9.1-2.43-13.4-4.05c-1.06-0.44-2.11-0.88-3.16-1.31c-0.52-0.22-1.06-0.43-1.57-0.66
			l-1.52-0.71c-1.99-0.98-3.9-2.05-5.63-3.26c-1.72-1.21-3.31-2.55-4.47-4.07c-0.6-0.75-1.05-1.55-1.41-2.37
			c-0.31-0.82-0.49-1.66-0.5-2.5c0.02-0.84,0.23-1.65,0.59-2.44c0.35-0.79,0.94-1.5,1.56-2.19c1.32-1.34,3.03-2.45,4.88-3.37
			c1.85-0.91,3.84-1.64,5.86-2.25c2.03-0.61,4.09-1.11,6.2-1.49c8.4-1.67,16.79-2.5,24.97-2.72c8.18-0.24,16.14,0.06,23.81,0.71
			c1.91,0.19,3.81,0.39,5.7,0.58c1.88,0.21,3.74,0.49,5.58,0.73c0.92,0.13,1.84,0.23,2.75,0.39c0.91,0.15,1.81,0.31,2.71,0.46
			c1.8,0.32,3.6,0.57,5.34,0.96c1.76,0.36,3.5,0.71,5.22,1.07c1.71,0.41,3.4,0.81,5.08,1.22c1.69,0.38,3.32,0.86,4.94,1.31
			c1.62,0.47,3.25,0.87,4.81,1.4c1.57,0.5,3.13,1,4.67,1.5c1.52,0.54,3.01,1.1,4.49,1.64c0.74,0.28,1.49,0.52,2.2,0.83
			c0.72,0.3,1.43,0.6,2.14,0.89c1.41,0.6,2.83,1.15,4.2,1.79c11.01,4.91,20.93,9.66,30.12,13.51c9.15,3.92,17.71,6.64,25.28,8.51
			c0.47,0.12,0.94,0.24,1.4,0.36c0.47,0.1,0.93,0.21,1.39,0.31c0.92,0.2,1.82,0.4,2.69,0.59c1.75,0.41,3.46,0.7,5.08,1.01
			c1.62,0.31,3.17,0.6,4.65,0.82c1.48,0.23,2.88,0.46,4.2,0.67c2.65,0.39,5,0.68,7.02,0.96c2.02,0.27,3.72,0.44,5.09,0.6
			C499.6,430.13,501,430.29,501,430.29z"/>
	</g>
	<g>
		<path d="M412.68,216.74v-16.2h2.26v14.58h4.14v1.62H412.68z"/>
		<path d="M423.62,216.9c-0.85,0-1.53-0.17-2.02-0.52c-0.49-0.35-0.84-0.84-1.05-1.48c-0.21-0.64-0.31-1.39-0.31-2.26v-3.36
			c0-0.87,0.1-1.62,0.31-2.26c0.21-0.64,0.56-1.13,1.05-1.48c0.49-0.35,1.17-0.52,2.02-0.52c0.85,0,1.52,0.17,2.01,0.52
			c0.49,0.35,0.83,0.84,1.04,1.48c0.21,0.64,0.31,1.39,0.31,2.26v3.36c0,0.87-0.1,1.62-0.31,2.26c-0.21,0.64-0.55,1.13-1.04,1.48
			C425.14,216.72,424.47,216.9,423.62,216.9z M423.62,215.32c0.41,0,0.7-0.12,0.87-0.36c0.17-0.24,0.27-0.56,0.3-0.95
			c0.03-0.39,0.05-0.8,0.05-1.23v-3.62c0-0.44-0.02-0.85-0.05-1.24c-0.03-0.39-0.13-0.7-0.3-0.95c-0.17-0.25-0.46-0.37-0.87-0.37
			c-0.41,0-0.71,0.12-0.88,0.37c-0.17,0.25-0.28,0.56-0.31,0.95c-0.03,0.39-0.05,0.8-0.05,1.24v3.62c0,0.43,0.02,0.84,0.05,1.23
			c0.03,0.39,0.14,0.71,0.31,0.95C422.91,215.2,423.21,215.32,423.62,215.32z"/>
		<path d="M431.62,216.9c-0.95,0-1.71-0.3-2.28-0.89c-0.57-0.59-0.9-1.38-0.98-2.35l1.78-0.54c0.11,0.73,0.29,1.28,0.54,1.65
			c0.25,0.37,0.63,0.55,1.12,0.55c0.39,0,0.68-0.11,0.88-0.33c0.2-0.22,0.3-0.52,0.3-0.89c0-0.33-0.07-0.63-0.22-0.9
			c-0.15-0.27-0.39-0.54-0.72-0.82l-1.98-1.7c-0.4-0.35-0.74-0.73-1.01-1.16c-0.27-0.43-0.41-0.98-0.41-1.66
			c0-0.61,0.12-1.13,0.37-1.55c0.25-0.42,0.59-0.74,1.04-0.96c0.45-0.22,0.97-0.33,1.57-0.33c0.92,0,1.62,0.3,2.11,0.89
			c0.49,0.59,0.76,1.31,0.83,2.15l-1.44,0.54c-0.05-0.4-0.13-0.75-0.24-1.05c-0.11-0.3-0.25-0.53-0.44-0.7
			c-0.19-0.17-0.43-0.25-0.74-0.25c-0.35,0-0.62,0.12-0.83,0.35c-0.21,0.23-0.31,0.51-0.31,0.83c0,0.2,0.04,0.4,0.13,0.59
			c0.09,0.19,0.24,0.38,0.45,0.57l2.04,1.88c0.28,0.25,0.54,0.53,0.79,0.82c0.25,0.29,0.45,0.63,0.61,1
			c0.16,0.37,0.24,0.81,0.24,1.3c0,0.65-0.13,1.2-0.4,1.64c-0.27,0.44-0.64,0.77-1.12,0.99C432.82,216.79,432.26,216.9,431.62,216.9
			z"/>
		<path d="M444,216.74l-3.62-16.2h2.12l2.56,11.94l2.44-11.94h2.06l-3.58,16.2H444z"/>
		<path d="M453.06,216.9c-0.45,0-0.85-0.13-1.2-0.39c-0.35-0.26-0.62-0.59-0.82-1c-0.2-0.41-0.3-0.84-0.3-1.29
			c0-0.72,0.12-1.33,0.36-1.82c0.24-0.49,0.57-0.91,0.99-1.25c0.42-0.34,0.91-0.64,1.46-0.89c0.55-0.25,1.14-0.5,1.75-0.74v-0.82
			c0-0.47-0.03-0.85-0.08-1.16c-0.05-0.31-0.16-0.54-0.33-0.69c-0.17-0.15-0.42-0.23-0.75-0.23c-0.29,0-0.53,0.07-0.71,0.2
			c-0.18,0.13-0.31,0.32-0.39,0.57c-0.08,0.25-0.12,0.54-0.12,0.87v0.58l-2.12-0.08c0.03-1.28,0.32-2.22,0.88-2.83
			c0.56-0.61,1.43-0.91,2.6-0.91c1.15,0,1.96,0.31,2.44,0.94c0.48,0.63,0.72,1.53,0.72,2.72v5.28c0,0.36,0.01,0.71,0.03,1.04
			c0.02,0.33,0.05,0.64,0.08,0.93c0.03,0.29,0.06,0.56,0.09,0.81h-1.96c-0.04-0.21-0.09-0.48-0.15-0.81
			c-0.06-0.33-0.1-0.62-0.13-0.89c-0.13,0.45-0.39,0.88-0.77,1.27C454.25,216.7,453.72,216.9,453.06,216.9z M453.9,215.06
			c0.21,0,0.41-0.06,0.6-0.18c0.19-0.12,0.35-0.26,0.5-0.41c0.15-0.15,0.25-0.28,0.3-0.37v-3.28c-0.33,0.19-0.65,0.37-0.94,0.56
			c-0.29,0.19-0.55,0.38-0.77,0.59s-0.39,0.44-0.52,0.7c-0.13,0.26-0.19,0.56-0.19,0.89c0,0.47,0.09,0.83,0.26,1.1
			C453.31,214.92,453.56,215.06,453.9,215.06z"/>
		<path d="M459.7,216.74v-16.2h2.14v16.2H459.7z"/>
		<path d="M464.28,216.74v-16.2h2.14v16.2H464.28z"/>
		<path d="M471.85,216.9c-0.91,0-1.61-0.18-2.1-0.53s-0.84-0.87-1.03-1.56c-0.19-0.69-0.29-1.53-0.29-2.53v-2.64
			c0-1.03,0.1-1.88,0.3-2.56c0.2-0.68,0.55-1.19,1.05-1.54c0.5-0.35,1.19-0.52,2.07-0.52c0.97,0,1.69,0.2,2.15,0.6
			c0.46,0.4,0.76,0.98,0.91,1.73c0.15,0.75,0.22,1.66,0.22,2.71V211h-4.56v2.32c0,0.47,0.04,0.85,0.13,1.14
			c0.09,0.29,0.23,0.51,0.42,0.65c0.19,0.14,0.44,0.21,0.75,0.21c0.32,0,0.56-0.08,0.73-0.23c0.17-0.15,0.28-0.37,0.34-0.66
			c0.06-0.29,0.09-0.62,0.09-1.01v-0.7h2.08v0.44c0,1.16-0.25,2.07-0.74,2.74C473.88,216.56,473.04,216.9,471.85,216.9z
			 M470.57,209.84h2.46v-1.04c0-0.48-0.03-0.88-0.08-1.21c-0.05-0.33-0.16-0.57-0.33-0.74c-0.17-0.17-0.43-0.25-0.79-0.25
			c-0.35,0-0.61,0.08-0.79,0.24c-0.18,0.16-0.3,0.43-0.37,0.81c-0.07,0.38-0.1,0.9-0.1,1.57V209.84z"/>
		<path d="M479.75,216.9c-0.95,0-1.71-0.3-2.28-0.89c-0.57-0.59-0.9-1.38-0.98-2.35l1.78-0.54c0.11,0.73,0.29,1.28,0.54,1.65
			c0.25,0.37,0.63,0.55,1.12,0.55c0.39,0,0.68-0.11,0.88-0.33c0.2-0.22,0.3-0.52,0.3-0.89c0-0.33-0.07-0.63-0.22-0.9
			c-0.15-0.27-0.39-0.54-0.72-0.82l-1.98-1.7c-0.4-0.35-0.74-0.73-1.01-1.16c-0.27-0.43-0.41-0.98-0.41-1.66
			c0-0.61,0.12-1.13,0.37-1.55c0.25-0.42,0.59-0.74,1.04-0.96c0.45-0.22,0.97-0.33,1.57-0.33c0.92,0,1.62,0.3,2.11,0.89
			c0.49,0.59,0.76,1.31,0.83,2.15l-1.44,0.54c-0.05-0.4-0.13-0.75-0.24-1.05c-0.11-0.3-0.25-0.53-0.44-0.7
			c-0.19-0.17-0.43-0.25-0.74-0.25c-0.35,0-0.62,0.12-0.83,0.35c-0.21,0.23-0.31,0.51-0.31,0.83c0,0.2,0.04,0.4,0.13,0.59
			c0.09,0.19,0.24,0.38,0.45,0.57l2.04,1.88c0.28,0.25,0.54,0.53,0.79,0.82c0.25,0.29,0.45,0.63,0.61,1
			c0.16,0.37,0.24,0.81,0.24,1.3c0,0.65-0.13,1.2-0.4,1.64c-0.27,0.44-0.64,0.77-1.12,0.99C480.95,216.79,480.39,216.9,479.75,216.9
			z"/>
		<path d="M493.37,216.92c-1.15,0-2.04-0.24-2.67-0.72c-0.63-0.48-1.07-1.13-1.32-1.94c-0.25-0.81-0.37-1.72-0.37-2.72v-5.72
			c0-1.09,0.12-2.05,0.37-2.86c0.25-0.81,0.69-1.44,1.32-1.89c0.63-0.45,1.52-0.67,2.67-0.67c1.01,0,1.82,0.19,2.41,0.56
			c0.59,0.37,1.02,0.91,1.28,1.6c0.26,0.69,0.39,1.53,0.39,2.5v1.28h-2.14v-1.14c0-0.6-0.03-1.13-0.09-1.59
			c-0.06-0.46-0.22-0.82-0.49-1.07c-0.27-0.25-0.71-0.38-1.34-0.38c-0.64,0-1.11,0.14-1.4,0.41c-0.29,0.27-0.48,0.66-0.57,1.16
			c-0.09,0.5-0.13,1.08-0.13,1.75v6.42c0,0.81,0.07,1.46,0.2,1.93c0.13,0.47,0.35,0.81,0.66,1.01c0.31,0.2,0.72,0.3,1.24,0.3
			c0.61,0,1.05-0.14,1.32-0.41c0.27-0.27,0.43-0.65,0.5-1.13c0.07-0.48,0.1-1.04,0.1-1.68v-1.2h2.14v1.2c0,0.99-0.12,1.86-0.36,2.61
			c-0.24,0.75-0.65,1.34-1.24,1.76C495.26,216.71,494.44,216.92,493.37,216.92z"/>
		<path d="M501.51,216.9c-0.45,0-0.85-0.13-1.2-0.39c-0.35-0.26-0.62-0.59-0.82-1c-0.2-0.41-0.3-0.84-0.3-1.29
			c0-0.72,0.12-1.33,0.36-1.82c0.24-0.49,0.57-0.91,0.99-1.25c0.42-0.34,0.91-0.64,1.46-0.89c0.55-0.25,1.14-0.5,1.75-0.74v-0.82
			c0-0.47-0.03-0.85-0.08-1.16c-0.05-0.31-0.16-0.54-0.33-0.69c-0.17-0.15-0.42-0.23-0.75-0.23c-0.29,0-0.53,0.07-0.71,0.2
			c-0.18,0.13-0.31,0.32-0.39,0.57c-0.08,0.25-0.12,0.54-0.12,0.87v0.58l-2.12-0.08c0.03-1.28,0.32-2.22,0.88-2.83
			c0.56-0.61,1.43-0.91,2.6-0.91c1.15,0,1.96,0.31,2.44,0.94c0.48,0.63,0.72,1.53,0.72,2.72v5.28c0,0.36,0.01,0.71,0.03,1.04
			c0.02,0.33,0.05,0.64,0.08,0.93c0.03,0.29,0.06,0.56,0.09,0.81h-1.96c-0.04-0.21-0.09-0.48-0.15-0.81
			c-0.06-0.33-0.1-0.62-0.13-0.89c-0.13,0.45-0.39,0.88-0.77,1.27C502.7,216.7,502.18,216.9,501.51,216.9z M502.35,215.06
			c0.21,0,0.41-0.06,0.6-0.18c0.19-0.12,0.35-0.26,0.5-0.41c0.15-0.15,0.25-0.28,0.3-0.37v-3.28c-0.33,0.19-0.65,0.37-0.94,0.56
			c-0.29,0.19-0.55,0.38-0.77,0.59c-0.22,0.21-0.39,0.44-0.52,0.7c-0.13,0.26-0.19,0.56-0.19,0.89c0,0.47,0.09,0.83,0.26,1.1
			C501.76,214.92,502.02,215.06,502.35,215.06z"/>
		<path d="M508.15,216.74v-16.2h2.14v16.2H508.15z"/>
		<path d="M515.69,216.9c-0.95,0-1.66-0.19-2.15-0.57c-0.49-0.38-0.81-0.92-0.98-1.61c-0.17-0.69-0.25-1.5-0.25-2.42v-2.66
			c0-0.97,0.09-1.8,0.26-2.49c0.17-0.69,0.5-1.21,0.99-1.58c0.49-0.37,1.2-0.55,2.13-0.55c0.84,0,1.49,0.14,1.95,0.41
			s0.78,0.68,0.95,1.22c0.17,0.54,0.26,1.21,0.26,2.01v0.68h-1.94v-0.7c0-0.51-0.03-0.91-0.1-1.2c-0.07-0.29-0.19-0.51-0.36-0.64
			c-0.17-0.13-0.42-0.2-0.74-0.2c-0.35,0-0.61,0.08-0.8,0.24s-0.31,0.43-0.37,0.81s-0.09,0.9-0.09,1.55v3.64
			c0,0.99,0.09,1.65,0.28,1.98c0.19,0.33,0.52,0.5,1,0.5c0.36,0,0.62-0.08,0.79-0.25c0.17-0.17,0.27-0.4,0.32-0.71
			c0.05-0.31,0.07-0.65,0.07-1.04v-0.94h1.94v0.8c0,0.77-0.09,1.44-0.27,2c-0.18,0.56-0.5,0.99-0.96,1.28
			C517.16,216.75,516.52,216.9,515.69,216.9z"/>
		<path d="M520.81,216.74v-16.2h2.14v5.84c0.39-0.37,0.82-0.69,1.3-0.96c0.48-0.27,1.01-0.4,1.6-0.4c0.45,0,0.8,0.12,1.05,0.36
			c0.25,0.24,0.42,0.54,0.52,0.9c0.1,0.36,0.15,0.73,0.15,1.1v9.36h-2.14V208c0-0.41-0.06-0.73-0.18-0.96
			c-0.12-0.23-0.37-0.34-0.74-0.34c-0.25,0-0.52,0.07-0.79,0.22c-0.27,0.15-0.53,0.33-0.77,0.54v9.28H520.81z"/>
		<path d="M531.73,216.9c-0.45,0-0.85-0.13-1.2-0.39c-0.35-0.26-0.62-0.59-0.82-1c-0.2-0.41-0.3-0.84-0.3-1.29
			c0-0.72,0.12-1.33,0.36-1.82c0.24-0.49,0.57-0.91,0.99-1.25c0.42-0.34,0.91-0.64,1.46-0.89c0.55-0.25,1.14-0.5,1.75-0.74v-0.82
			c0-0.47-0.03-0.85-0.08-1.16s-0.16-0.54-0.33-0.69c-0.17-0.15-0.42-0.23-0.75-0.23c-0.29,0-0.53,0.07-0.71,0.2
			c-0.18,0.13-0.31,0.32-0.39,0.57c-0.08,0.25-0.12,0.54-0.12,0.87v0.58l-2.12-0.08c0.03-1.28,0.32-2.22,0.88-2.83
			c0.56-0.61,1.43-0.91,2.6-0.91c1.15,0,1.96,0.31,2.44,0.94c0.48,0.63,0.72,1.53,0.72,2.72v5.28c0,0.36,0.01,0.71,0.03,1.04
			c0.02,0.33,0.05,0.64,0.08,0.93c0.03,0.29,0.06,0.56,0.09,0.81h-1.96c-0.04-0.21-0.09-0.48-0.15-0.81s-0.1-0.62-0.13-0.89
			c-0.13,0.45-0.39,0.88-0.77,1.27C532.92,216.7,532.39,216.9,531.73,216.9z M532.57,215.06c0.21,0,0.41-0.06,0.6-0.18
			c0.19-0.12,0.35-0.26,0.5-0.41c0.15-0.15,0.25-0.28,0.3-0.37v-3.28c-0.33,0.19-0.65,0.37-0.94,0.56
			c-0.29,0.19-0.55,0.38-0.77,0.59s-0.39,0.44-0.52,0.7c-0.13,0.26-0.19,0.56-0.19,0.89c0,0.47,0.09,0.83,0.26,1.1
			C531.98,214.92,532.23,215.06,532.57,215.06z"/>
		<path d="M542.73,220.54V216c-0.25,0.27-0.53,0.48-0.83,0.65c-0.3,0.17-0.64,0.25-1.03,0.25c-0.97,0-1.7-0.36-2.18-1.07
			c-0.48-0.71-0.72-1.92-0.72-3.63v-2.24c0-0.88,0.07-1.7,0.22-2.45c0.15-0.75,0.42-1.36,0.83-1.81c0.41-0.45,1-0.68,1.79-0.68
			c0.39,0,0.74,0.09,1.06,0.26c0.32,0.17,0.61,0.39,0.86,0.64v-0.74h2.14v15.36H542.73z M541.41,215.22c0.2,0,0.42-0.04,0.65-0.11
			c0.23-0.07,0.46-0.18,0.67-0.33v-7.58c-0.19-0.13-0.39-0.25-0.62-0.35c-0.23-0.1-0.47-0.15-0.74-0.15c-0.49,0-0.83,0.24-1,0.71
			c-0.17,0.47-0.26,1.04-0.26,1.71v3.26c0,0.53,0.03,1.02,0.09,1.45c0.06,0.43,0.18,0.77,0.37,1.02
			C540.75,215.09,541.03,215.22,541.41,215.22z"/>
		<path d="M548.69,216.9c-0.45,0-0.81-0.12-1.06-0.36c-0.25-0.24-0.43-0.54-0.53-0.9s-0.15-0.73-0.15-1.1v-9.36h2.14v8.72
			c0,0.41,0.06,0.74,0.18,0.97c0.12,0.23,0.37,0.35,0.74,0.35c0.24,0,0.49-0.07,0.75-0.21c0.26-0.14,0.51-0.31,0.75-0.51v-9.32h2.14
			v11.56h-2.14v-1.14c-0.37,0.36-0.8,0.67-1.27,0.92C549.76,216.77,549.25,216.9,548.69,216.9z"/>
		<path d="M555.96,216.74v-11.56h2.14v11.56H555.96z M556.48,204.22l1.18-3.96h2.14l-2.24,3.96H556.48z"/>
		<path d="M563.5,216.9c-0.91,0-1.61-0.18-2.1-0.53c-0.49-0.35-0.84-0.87-1.03-1.56c-0.19-0.69-0.29-1.53-0.29-2.53v-2.64
			c0-1.03,0.1-1.88,0.3-2.56c0.2-0.68,0.55-1.19,1.05-1.54c0.5-0.35,1.19-0.52,2.07-0.52c0.97,0,1.69,0.2,2.15,0.6
			c0.46,0.4,0.76,0.98,0.91,1.73c0.15,0.75,0.22,1.66,0.22,2.71V211h-4.56v2.32c0,0.47,0.04,0.85,0.13,1.14
			c0.09,0.29,0.23,0.51,0.42,0.65c0.19,0.14,0.44,0.21,0.75,0.21c0.32,0,0.56-0.08,0.73-0.23c0.17-0.15,0.28-0.37,0.34-0.66
			c0.06-0.29,0.09-0.62,0.09-1.01v-0.7h2.08v0.44c0,1.16-0.25,2.07-0.74,2.74C565.53,216.56,564.69,216.9,563.5,216.9z
			 M562.22,209.84h2.46v-1.04c0-0.48-0.03-0.88-0.08-1.21c-0.05-0.33-0.16-0.57-0.33-0.74c-0.17-0.17-0.43-0.25-0.79-0.25
			c-0.35,0-0.61,0.08-0.79,0.24c-0.18,0.16-0.3,0.43-0.37,0.81c-0.07,0.38-0.1,0.9-0.1,1.57V209.84z"/>
		<path d="M571.4,216.9c-0.95,0-1.71-0.3-2.28-0.89c-0.57-0.59-0.9-1.38-0.98-2.35l1.78-0.54c0.11,0.73,0.29,1.28,0.54,1.65
			c0.25,0.37,0.63,0.55,1.12,0.55c0.39,0,0.68-0.11,0.88-0.33c0.2-0.22,0.3-0.52,0.3-0.89c0-0.33-0.07-0.63-0.22-0.9
			c-0.15-0.27-0.39-0.54-0.72-0.82l-1.98-1.7c-0.4-0.35-0.74-0.73-1.01-1.16c-0.27-0.43-0.41-0.98-0.41-1.66
			c0-0.61,0.12-1.13,0.37-1.55c0.25-0.42,0.59-0.74,1.04-0.96c0.45-0.22,0.97-0.33,1.57-0.33c0.92,0,1.62,0.3,2.11,0.89
			c0.49,0.59,0.76,1.31,0.83,2.15l-1.44,0.54c-0.05-0.4-0.13-0.75-0.24-1.05c-0.11-0.3-0.25-0.53-0.44-0.7
			c-0.19-0.17-0.43-0.25-0.74-0.25c-0.35,0-0.62,0.12-0.83,0.35c-0.21,0.23-0.31,0.51-0.31,0.83c0,0.2,0.04,0.4,0.13,0.59
			s0.24,0.38,0.45,0.57l2.04,1.88c0.28,0.25,0.54,0.53,0.79,0.82c0.25,0.29,0.45,0.63,0.61,1c0.16,0.37,0.24,0.81,0.24,1.3
			c0,0.65-0.13,1.2-0.4,1.64c-0.27,0.44-0.64,0.77-1.12,0.99C572.6,216.79,572.04,216.9,571.4,216.9z"/>
	</g>
	<g>
		<path d="M494.95,313.56c-0.93,0-1.71-0.2-2.33-0.6s-1.09-0.95-1.41-1.66s-0.51-1.53-0.56-2.46l2-0.54
			c0.04,0.57,0.13,1.13,0.27,1.66c0.14,0.53,0.37,0.97,0.69,1.31s0.77,0.51,1.34,0.51c0.59,0,1.03-0.16,1.33-0.49
			c0.3-0.33,0.45-0.8,0.45-1.41c0-0.73-0.17-1.32-0.5-1.77c-0.33-0.45-0.75-0.9-1.26-1.35l-2.72-2.4c-0.53-0.47-0.93-0.98-1.18-1.53
			c-0.25-0.55-0.38-1.24-0.38-2.05c0-1.19,0.34-2.11,1.02-2.76c0.68-0.65,1.61-0.98,2.78-0.98c0.64,0,1.2,0.08,1.69,0.25
			c0.49,0.17,0.89,0.42,1.22,0.77c0.33,0.35,0.59,0.78,0.78,1.31c0.19,0.53,0.32,1.14,0.39,1.85l-1.92,0.52
			c-0.04-0.53-0.12-1.02-0.24-1.47c-0.12-0.45-0.33-0.81-0.63-1.08c-0.3-0.27-0.73-0.41-1.29-0.41c-0.56,0-1,0.15-1.31,0.45
			c-0.31,0.3-0.47,0.74-0.47,1.33c0,0.49,0.08,0.9,0.25,1.22c0.17,0.32,0.44,0.65,0.81,0.98l2.74,2.4c0.61,0.53,1.15,1.17,1.62,1.91
			c0.47,0.74,0.7,1.62,0.7,2.63c0,0.8-0.17,1.49-0.5,2.07c-0.33,0.58-0.79,1.02-1.37,1.33C496.38,313.4,495.71,313.56,494.95,313.56
			z"/>
		<path d="M499.71,313.38l3.44-16.2h2.18l3.46,16.2h-2.14l-0.74-4.08h-3.3l-0.78,4.08H499.71z M502.9,307.68h2.7l-1.36-7.3
			L502.9,307.68z"/>
		<path d="M510.42,313.38v-16.2h2.26v14.58h4.14v1.62H510.42z"/>
		<path d="M519.7,313.38v-14.52h-2.74v-1.68h7.66v1.68h-2.66v14.52H519.7z"/>
		<path d="M525.26,313.38l3.44-16.2h2.18l3.46,16.2h-2.14l-0.74-4.08h-3.3l-0.78,4.08H525.26z M528.46,307.68h2.7l-1.36-7.3
			L528.46,307.68z"/>
		<path d="M539.68,313.38l3.44-16.2h2.18l3.46,16.2h-2.14l-0.74-4.08h-3.3l-0.78,4.08H539.68z M542.88,307.68h2.7l-1.36-7.3
			L542.88,307.68z"/>
		<path d="M550.4,313.38v-16.2h3.26c1.08,0,1.97,0.14,2.68,0.43c0.71,0.29,1.23,0.75,1.57,1.38c0.34,0.63,0.51,1.46,0.51,2.49
			c0,0.63-0.07,1.2-0.2,1.71c-0.13,0.51-0.35,0.95-0.64,1.3s-0.68,0.61-1.16,0.77l2.3,8.12h-2.18l-2.12-7.6h-1.76v7.6H550.4z
			 M552.66,304.16h0.86c0.64,0,1.16-0.08,1.56-0.24c0.4-0.16,0.69-0.43,0.88-0.82c0.19-0.39,0.28-0.93,0.28-1.62
			c0-0.95-0.17-1.63-0.52-2.05c-0.35-0.42-1.03-0.63-2.06-0.63h-1V304.16z"/>
		<path d="M564.64,313.58c-1.01,0-1.82-0.22-2.43-0.65c-0.61-0.43-1.05-1.06-1.32-1.89c-0.27-0.83-0.41-1.82-0.41-2.98v-5.42
			c0-1.19,0.12-2.2,0.37-3.03c0.25-0.83,0.69-1.47,1.32-1.91c0.63-0.44,1.52-0.66,2.65-0.66c1.01,0,1.83,0.17,2.45,0.51
			s1.07,0.86,1.35,1.56c0.28,0.7,0.42,1.58,0.42,2.65v0.6h-2.12v-0.5c0-0.71-0.05-1.28-0.14-1.73c-0.09-0.45-0.28-0.78-0.57-1
			c-0.29-0.22-0.74-0.33-1.35-0.33c-0.67,0-1.15,0.15-1.45,0.46c-0.3,0.31-0.49,0.72-0.56,1.25c-0.07,0.53-0.11,1.12-0.11,1.79v6
			c0,0.77,0.06,1.42,0.17,1.94c0.11,0.52,0.33,0.91,0.65,1.16c0.32,0.25,0.77,0.38,1.36,0.38c0.59,0,1.04-0.14,1.36-0.42
			c0.32-0.28,0.54-0.69,0.66-1.24c0.12-0.55,0.18-1.23,0.18-2.04v-1.12h-2.06v-1.6h4.1v8.02h-1.42l-0.22-1.86
			c-0.21,0.6-0.55,1.09-1,1.48C566.07,313.38,565.44,313.58,564.64,313.58z"/>
		<path d="M571.48,313.38v-16.2h6.28v1.68h-4.02v5.36H577v1.6h-3.26v5.94h4.06v1.62H571.48z"/>
		<path d="M579.62,313.38v-16.2h1.54l4.6,10.76v-10.76h1.88v16.2h-1.44l-4.66-11.06v11.06H579.62z"/>
		<path d="M591.96,313.38v-14.52h-2.74v-1.68h7.66v1.68h-2.66v14.52H591.96z"/>
		<path d="M598.55,313.38v-16.2h2.22v16.2H598.55z"/>
		<path d="M603.39,313.38v-16.2h1.54l4.6,10.76v-10.76h1.88v16.2h-1.44l-4.66-11.06v11.06H603.39z"/>
		<path d="M613.07,313.38l3.44-16.2h2.18l3.46,16.2h-2.14l-0.74-4.08h-3.3l-0.78,4.08H613.07z M616.27,307.68h2.7l-1.36-7.3
			L616.27,307.68z"/>
	</g>
</g>
</svg>
